<?xml version="1.0" encoding="utf-8"?>
<!-- Generator: Adobe Illustrator 23.0.1, SVG Export Plug-In . SVG Version: 6.00 Build 0)  -->
<svg version="1.1" id="logo" xmlns="http://www.w3.org/2000/svg" xmlns:xlink="http://www.w3.org/1999/xlink" x="0px" y="0px"
	 viewBox="0 0 379 266" style="enable-background:new 0 0 379 266;" xml:space="preserve">
<style type="text/css">
	.st0{fill:#059995;}
	.st1{fill:#0EBC04;}
	.st2{fill:none;}
	.st3{font-family:'AgencyFB-Reg';}
	.st4{font-size:24px;}
	.st5{letter-spacing:2;}
</style>
<g id="coloured">
	<path id="Letter_x5F_C_1_" class="st0" d="M0,18.71C0,18.71,0,0,18.71,0s74.86,0,74.86,0s18.71,0,18.71,18.71S112.04,44,112.04,44
		l-27.82,0.25V18.71H28.07v215.21L85,234l0.21-23H113l-0.71,32.29c0,0-7.29,16.71-18.71,18.71c-9.22,1.61-74.86,0-74.86,0
		S6,263,0,243.29V18.71z"/>
	<g id="letter_x5F_i_1_">
		<rect id="i_1_" x="86" y="101" class="st1" width="25.92" height="97"/>
		<rect id="dot_1_" x="86" y="58" class="st1" width="26" height="26"/>
	</g>
	<g id="collins_ilo_1_">
		<rect x="147.06" y="232" class="st2" width="231.94" height="34"/>
		<text transform="matrix(1 0 0 1 147.0645 250.3359)"><tspan x="0" y="0" class="st0 st3 st4 st5">COLLINS</tspan><tspan x="79.14" y="0" class="st3 st4 st5"> </tspan><tspan x="86.24" y="0" class="st1 st3 st4 st5">IL</tspan></text>
		<rect x="233" y="232" class="st2" width="28" height="34"/>
		<text id="o_1_" transform="matrix(-1 0 0 1 261 250.3359)" class="st1 st3 st4 st5">C</text>
	</g>
</g>
</svg>
